<svg width="1422" height="345" viewBox="0 0 1422 345" fill="none" xmlns="http://www.w3.org/2000/svg">
<path fill-rule="evenodd" clip-rule="evenodd" d="M-18.5 258.5L41.5 229.833C101.5 201.167 221.5 143.833 341.5 151C461.5 158.167 581.5 229.833 701.5 229.833C821.5 229.833 941.5 158.167 1061.5 108C1181.5 57.8333 1301.5 29.1667 1361.5 14.8333L1421.5 0.5V344.5H1361.5C1301.5 344.5 1181.5 344.5 1061.5 344.5C941.5 344.5 821.5 344.5 701.5 344.5C581.5 344.5 461.5 344.5 341.5 344.5C221.5 344.5 101.5 344.5 41.5 344.5H-18.5V258.5Z" fill="#FDC435"/>
</svg>
